<svg xmlns="http://www.w3.org/2000/svg" xmlns:xlink="http://www.w3.org/1999/xlink" width="288" zoomAndPan="magnify" viewBox="0 0 216 143.999998" height="192" preserveAspectRatio="xMidYMid meet" version="1.2"><defs><clipPath id="5028254b7f"><path d="M 198 48 L 215.835938 48 L 215.835938 67 L 198 67 Z M 198 48 "/></clipPath><clipPath id="e823a28ef4"><path d="M 164 61 L 172 61 L 172 67.957031 L 164 67.957031 Z M 164 61 "/></clipPath><clipPath id="1673bfc821"><path d="M 179 56 L 191 56 L 191 67.957031 L 179 67.957031 Z M 179 56 "/></clipPath><clipPath id="fff640af18"><path d="M 133.335938 59 L 141 59 L 141 67 L 133.335938 67 Z M 133.335938 59 "/></clipPath><clipPath id="1e32bad332"><path d="M 172 7 L 180 7 L 180 14.0625 L 172 14.0625 Z M 172 7 "/></clipPath><clipPath id="7c4c4c4d8b"><path d="M 90 11 L 107.835938 11 L 107.835938 30 L 90 30 Z M 90 11 "/></clipPath><clipPath id="4cd3865903"><path d="M 99 76 L 107 76 L 107 82.753906 L 99 82.753906 Z M 99 76 "/></clipPath><clipPath id="191150c570"><path d="M 56 10.332031 L 64 10.332031 L 64 18 L 56 18 Z M 56 10.332031 "/></clipPath><clipPath id="c8097ed11a"><path d="M 71 10.332031 L 83 10.332031 L 83 22 L 71 22 Z M 71 10.332031 "/></clipPath><clipPath id="46390a8ea0"><path d="M 25.335938 11 L 33 11 L 33 19 L 25.335938 19 Z M 25.335938 11 "/></clipPath><clipPath id="a7806d727e"><path d="M 48 78 L 66.472656 78 L 66.472656 97 L 48 97 Z M 48 78 "/></clipPath></defs><g id="4f10d17169"><g clip-rule="nonzero" clip-path="url(#5028254b7f)"><path style=" stroke:none;fill-rule:nonzero;fill:#6da6e3;fill-opacity:1;" d="M 210.292969 49.191406 L 210.292969 54.066406 L 215.238281 54.066406 L 215.238281 60.769531 L 210.886719 60.769531 C 210.136719 60.769531 210.292969 60.613281 210.292969 61.363281 L 210.292969 65.761719 L 203.570312 65.761719 L 203.570312 60.769531 L 198.625 60.769531 L 198.625 54.066406 L 202.972656 54.066406 C 203.726562 54.066406 203.570312 54.21875 203.570312 53.46875 L 203.570312 49.191406 L 210.292969 49.191406 M 210.886719 48.59375 L 202.976562 48.59375 L 202.976562 53.46875 L 198.027344 53.46875 L 198.027344 61.363281 L 202.976562 61.363281 L 202.976562 66.355469 L 210.886719 66.355469 L 210.886719 61.363281 L 215.835938 61.363281 L 215.835938 53.46875 L 210.886719 53.46875 Z M 210.886719 48.59375 "/></g><path style=" stroke:none;fill-rule:nonzero;fill:#6da6e3;fill-opacity:1;" d="M 207.097656 6.996094 L 207.097656 9.878906 L 210.023438 9.878906 L 210.023438 13.84375 L 207.449219 13.84375 C 207.007812 13.84375 207.097656 13.753906 207.097656 14.195312 L 207.097656 16.796875 L 203.125 16.796875 L 203.125 13.84375 L 200.199219 13.84375 L 200.199219 9.878906 L 202.769531 9.878906 C 203.214844 9.878906 203.125 9.96875 203.125 9.527344 L 203.125 6.996094 L 207.097656 6.996094 M 207.449219 6.644531 L 202.769531 6.644531 L 202.769531 9.527344 L 199.84375 9.527344 L 199.84375 14.195312 L 202.769531 14.195312 L 202.769531 17.148438 L 207.449219 17.148438 L 207.449219 14.195312 L 210.375 14.195312 L 210.375 9.527344 L 207.449219 9.527344 Z M 207.449219 6.644531 "/><path style=" stroke:none;fill-rule:nonzero;fill:#6da6e3;fill-opacity:1;" d="M 166.003906 46.539062 L 166.003906 48.773438 L 168.269531 48.773438 L 168.269531 51.84375 L 166.277344 51.84375 C 165.933594 51.84375 166.003906 51.773438 166.003906 52.117188 L 166.003906 54.132812 L 162.925781 54.132812 L 162.925781 51.84375 L 160.660156 51.84375 L 160.660156 48.773438 L 162.652344 48.773438 C 162.996094 48.773438 162.925781 48.84375 162.925781 48.5 L 162.925781 46.539062 L 166.003906 46.539062 M 166.277344 46.265625 L 162.652344 46.265625 L 162.652344 48.5 L 160.386719 48.5 L 160.386719 52.117188 L 162.652344 52.117188 L 162.652344 54.40625 L 166.277344 54.40625 L 166.277344 52.117188 L 168.542969 52.117188 L 168.542969 48.5 L 166.277344 48.5 Z M 166.277344 46.265625 "/><path style=" stroke:none;fill-rule:nonzero;fill:#6da6e3;fill-opacity:1;" d="M 151.246094 49.308594 L 151.246094 51.101562 L 153.0625 51.101562 L 153.0625 53.5625 L 151.464844 53.5625 C 151.191406 53.5625 151.246094 53.507812 151.246094 53.78125 L 151.246094 55.394531 L 148.777344 55.394531 L 148.777344 53.5625 L 146.960938 53.5625 L 146.960938 51.101562 L 148.558594 51.101562 C 148.832031 51.101562 148.777344 51.15625 148.777344 50.878906 L 148.777344 49.308594 L 151.246094 49.308594 M 151.464844 49.089844 L 148.558594 49.089844 L 148.558594 50.882812 L 146.742188 50.882812 L 146.742188 53.777344 L 148.558594 53.777344 L 148.558594 55.613281 L 151.464844 55.613281 L 151.464844 53.777344 L 153.28125 53.777344 L 153.28125 50.882812 L 151.464844 50.882812 Z M 151.464844 49.089844 "/><path style=" stroke:none;fill-rule:nonzero;fill:#6da6e3;fill-opacity:1;" d="M 211.996094 -4.53125 L 211.996094 -2.742188 L 213.8125 -2.742188 L 213.8125 -0.277344 L 212.214844 -0.277344 C 211.941406 -0.277344 211.996094 -0.335938 211.996094 -0.0585938 L 211.996094 1.554688 L 209.527344 1.554688 L 209.527344 -0.277344 L 207.710938 -0.277344 L 207.710938 -2.742188 L 209.308594 -2.742188 C 209.582031 -2.742188 209.527344 -2.683594 209.527344 -2.960938 L 209.527344 -4.53125 L 211.996094 -4.53125 M 212.214844 -4.75 L 209.308594 -4.75 L 209.308594 -2.960938 L 207.492188 -2.960938 L 207.492188 -0.0625 L 209.308594 -0.0625 L 209.308594 1.773438 L 212.214844 1.773438 L 212.214844 -0.0625 L 214.03125 -0.0625 L 214.03125 -2.960938 L 212.214844 -2.960938 Z M 212.214844 -4.75 "/><path style=" stroke:none;fill-rule:nonzero;fill:#6da6e3;fill-opacity:1;" d="M 177.632812 45.386719 L 177.632812 47.261719 L 179.535156 47.261719 L 179.535156 49.835938 L 177.863281 49.835938 C 177.574219 49.835938 177.632812 49.777344 177.632812 50.066406 L 177.632812 51.753906 L 175.050781 51.753906 L 175.050781 49.835938 L 173.152344 49.835938 L 173.152344 47.261719 L 174.824219 47.261719 C 175.113281 47.261719 175.050781 47.320312 175.050781 47.03125 L 175.050781 45.386719 L 177.632812 45.386719 M 177.863281 45.160156 L 174.824219 45.160156 L 174.824219 47.03125 L 172.921875 47.03125 L 172.921875 50.066406 L 174.824219 50.066406 L 174.824219 51.984375 L 177.863281 51.984375 L 177.863281 50.066406 L 179.765625 50.066406 L 179.765625 47.03125 L 177.863281 47.03125 Z M 177.863281 45.160156 "/><g clip-rule="nonzero" clip-path="url(#e823a28ef4)"><path style=" stroke:none;fill-rule:nonzero;fill:#6da6e3;fill-opacity:1;" d="M 169.144531 61.320312 L 169.144531 63.191406 L 171.042969 63.191406 L 171.042969 65.769531 L 169.371094 65.769531 C 169.085938 65.769531 169.144531 65.707031 169.144531 65.996094 L 169.144531 67.6875 L 166.5625 67.6875 L 166.5625 65.769531 L 164.660156 65.769531 L 164.660156 63.191406 L 166.332031 63.191406 C 166.621094 63.191406 166.5625 63.25 166.5625 62.964844 L 166.5625 61.320312 L 169.144531 61.320312 M 169.371094 61.089844 L 166.332031 61.089844 L 166.332031 62.960938 L 164.429688 62.960938 L 164.429688 65.996094 L 166.332031 65.996094 L 166.332031 67.914062 L 169.371094 67.914062 L 169.371094 65.996094 L 171.273438 65.996094 L 171.273438 62.960938 L 169.371094 62.960938 Z M 169.371094 61.089844 "/></g><path style=" stroke:none;fill-rule:nonzero;fill:#6da6e3;fill-opacity:1;" d="M 191.882812 15.585938 L 191.882812 17.820312 L 194.148438 17.820312 L 194.148438 20.890625 L 192.15625 20.890625 C 191.8125 20.890625 191.882812 20.820312 191.882812 21.164062 L 191.882812 23.179688 L 188.804688 23.179688 L 188.804688 20.890625 L 186.539062 20.890625 L 186.539062 17.820312 L 188.53125 17.820312 C 188.875 17.820312 188.804688 17.890625 188.804688 17.546875 L 188.804688 15.585938 L 191.882812 15.585938 M 192.15625 15.3125 L 188.53125 15.3125 L 188.53125 17.546875 L 186.265625 17.546875 L 186.265625 21.164062 L 188.53125 21.164062 L 188.53125 23.449219 L 192.15625 23.449219 L 192.15625 21.164062 L 194.421875 21.164062 L 194.421875 17.546875 L 192.15625 17.546875 Z M 192.15625 15.3125 "/><path style=" stroke:none;fill-rule:nonzero;fill:#6da6e3;fill-opacity:1;" d="M 195.140625 37.785156 L 195.140625 41.769531 L 199.183594 41.769531 L 199.183594 47.25 L 195.628906 47.25 C 195.015625 47.25 195.140625 47.121094 195.140625 47.734375 L 195.140625 51.332031 L 189.644531 51.332031 L 189.644531 47.25 L 185.605469 47.25 L 185.605469 41.769531 L 189.160156 41.769531 C 189.773438 41.769531 189.648438 41.894531 189.648438 41.28125 L 189.648438 37.785156 L 195.140625 37.785156 M 195.628906 37.296875 L 189.15625 37.296875 L 189.15625 41.28125 L 185.117188 41.28125 L 185.117188 47.734375 L 189.15625 47.734375 L 189.15625 51.816406 L 195.628906 51.816406 L 195.628906 47.734375 L 199.671875 47.734375 L 199.671875 41.28125 L 195.628906 41.28125 Z M 195.628906 37.296875 "/><path style=" stroke:none;fill-rule:nonzero;fill:#6da6e3;fill-opacity:1;" d="M 163.410156 33.738281 L 163.410156 35.410156 L 165.105469 35.410156 L 165.105469 37.707031 L 163.613281 37.707031 C 163.355469 37.707031 163.410156 37.65625 163.410156 37.910156 L 163.410156 39.417969 L 161.105469 39.417969 L 161.105469 37.707031 L 159.410156 37.707031 L 159.410156 35.410156 L 160.902344 35.410156 C 161.160156 35.410156 161.105469 35.460938 161.105469 35.207031 L 161.105469 33.738281 L 163.410156 33.738281 M 163.613281 33.535156 L 160.902344 33.535156 L 160.902344 35.207031 L 159.207031 35.207031 L 159.207031 37.910156 L 160.902344 37.910156 L 160.902344 39.621094 L 163.613281 39.621094 L 163.613281 37.910156 L 165.308594 37.910156 L 165.308594 35.207031 L 163.613281 35.207031 Z M 163.613281 33.535156 "/><path style=" stroke:none;fill-rule:nonzero;fill:#6da6e3;fill-opacity:1;" d="M 174.457031 19.96875 L 174.457031 21.167969 L 175.675781 21.167969 L 175.675781 22.820312 L 174.605469 22.820312 C 174.421875 22.820312 174.457031 22.78125 174.457031 22.96875 L 174.457031 24.050781 L 172.804688 24.050781 L 172.804688 22.820312 L 171.585938 22.820312 L 171.585938 21.167969 L 172.65625 21.167969 C 172.839844 21.167969 172.804688 21.207031 172.804688 21.023438 L 172.804688 19.96875 L 174.457031 19.96875 M 174.605469 19.824219 L 172.65625 19.824219 L 172.65625 21.023438 L 171.4375 21.023438 L 171.4375 22.96875 L 172.65625 22.96875 L 172.65625 24.195312 L 174.605469 24.195312 L 174.605469 22.96875 L 175.824219 22.96875 L 175.824219 21.023438 L 174.605469 21.023438 Z M 174.605469 19.824219 "/><path style=" stroke:none;fill-rule:nonzero;fill:#6da6e3;fill-opacity:1;" d="M 192.753906 5.851562 L 192.753906 7.054688 L 193.972656 7.054688 L 193.972656 8.703125 L 192.898438 8.703125 C 192.714844 8.703125 192.753906 8.667969 192.753906 8.851562 L 192.753906 9.933594 L 191.097656 9.933594 L 191.097656 8.703125 L 189.878906 8.703125 L 189.878906 7.054688 L 190.953125 7.054688 C 191.136719 7.054688 191.097656 7.089844 191.097656 6.90625 L 191.097656 5.851562 L 192.753906 5.851562 M 192.898438 5.707031 L 190.953125 5.707031 L 190.953125 6.90625 L 189.734375 6.90625 L 189.734375 8.851562 L 190.953125 8.851562 L 190.953125 10.078125 L 192.898438 10.078125 L 192.898438 8.851562 L 194.117188 8.851562 L 194.117188 6.90625 L 192.898438 6.90625 Z M 192.898438 5.707031 "/><path style=" stroke:none;fill-rule:nonzero;fill:#6da6e3;fill-opacity:1;" d="M 153.230469 62.722656 L 153.230469 63.921875 L 154.449219 63.921875 L 154.449219 65.570312 L 153.378906 65.570312 C 153.191406 65.570312 153.230469 65.535156 153.230469 65.71875 L 153.230469 66.800781 L 151.574219 66.800781 L 151.574219 65.570312 L 150.359375 65.570312 L 150.359375 63.921875 L 151.429688 63.921875 C 151.613281 63.921875 151.574219 63.957031 151.574219 63.773438 L 151.574219 62.722656 L 153.230469 62.722656 M 153.378906 62.574219 L 151.429688 62.574219 L 151.429688 63.773438 L 150.210938 63.773438 L 150.210938 65.71875 L 151.429688 65.71875 L 151.429688 66.949219 L 153.378906 66.949219 L 153.378906 65.71875 L 154.59375 65.71875 L 154.59375 63.773438 L 153.378906 63.773438 Z M 153.378906 62.574219 "/><g clip-rule="nonzero" clip-path="url(#1673bfc821)"><path style=" stroke:none;fill-rule:nonzero;fill:#6da6e3;fill-opacity:1;" d="M 186.773438 56.914062 L 186.773438 59.996094 L 189.898438 59.996094 L 189.898438 64.230469 L 187.148438 64.230469 C 186.675781 64.230469 186.773438 64.136719 186.773438 64.609375 L 186.773438 67.390625 L 182.523438 67.390625 L 182.523438 64.234375 L 179.398438 64.234375 L 179.398438 59.996094 L 182.148438 59.996094 C 182.625 59.996094 182.527344 60.09375 182.527344 59.621094 L 182.527344 56.917969 L 186.773438 56.917969 M 187.152344 56.539062 L 182.152344 56.539062 L 182.152344 59.621094 L 179.023438 59.621094 L 179.023438 64.609375 L 182.152344 64.609375 L 182.152344 67.765625 L 187.152344 67.765625 L 187.152344 64.609375 L 190.277344 64.609375 L 190.277344 59.621094 L 187.152344 59.621094 Z M 187.152344 56.539062 "/></g><path style=" stroke:none;fill-rule:nonzero;fill:#6da6e3;fill-opacity:1;" d="M 210.222656 25.117188 L 210.222656 28.71875 L 213.875 28.71875 L 213.875 33.671875 L 210.664062 33.671875 C 210.105469 33.671875 210.222656 33.554688 210.222656 34.109375 L 210.222656 37.359375 L 205.257812 37.359375 L 205.257812 33.667969 L 201.601562 33.667969 L 201.601562 28.714844 L 204.816406 28.714844 C 205.371094 28.714844 205.257812 28.828125 205.257812 28.277344 L 205.257812 25.113281 L 210.222656 25.113281 M 210.664062 24.675781 L 204.816406 24.675781 L 204.816406 28.277344 L 201.160156 28.277344 L 201.160156 34.109375 L 204.816406 34.109375 L 204.816406 37.800781 L 210.664062 37.800781 L 210.664062 34.109375 L 214.316406 34.109375 L 214.316406 28.277344 L 210.664062 28.277344 Z M 210.664062 24.675781 "/><path style=" stroke:none;fill-rule:nonzero;fill:#6da6e3;fill-opacity:1;" d="M 185.046875 28.167969 L 185.046875 31.167969 L 188.089844 31.167969 L 188.089844 35.289062 L 185.414062 35.289062 C 184.953125 35.289062 185.046875 35.191406 185.046875 35.652344 L 185.046875 38.359375 L 180.917969 38.359375 L 180.917969 35.285156 L 177.875 35.285156 L 177.875 31.164062 L 180.550781 31.164062 C 181.011719 31.164062 180.917969 31.261719 180.917969 30.800781 L 180.917969 28.167969 L 185.046875 28.167969 M 185.414062 27.800781 L 180.550781 27.800781 L 180.550781 30.800781 L 177.507812 30.800781 L 177.507812 35.652344 L 180.550781 35.652344 L 180.550781 38.722656 L 185.414062 38.722656 L 185.414062 35.652344 L 188.457031 35.652344 L 188.457031 30.800781 L 185.414062 30.800781 Z M 185.414062 27.800781 "/><g clip-rule="nonzero" clip-path="url(#fff640af18)"><path style=" stroke:none;fill-rule:nonzero;fill:#6da6e3;fill-opacity:1;" d="M 138.160156 59.59375 L 138.160156 61.515625 L 140.109375 61.515625 L 140.109375 64.152344 L 138.398438 64.152344 C 138.101562 64.152344 138.164062 64.09375 138.164062 64.386719 L 138.164062 66.117188 L 135.515625 66.117188 L 135.515625 64.152344 L 133.570312 64.152344 L 133.570312 61.515625 L 135.28125 61.515625 C 135.574219 61.515625 135.515625 61.574219 135.515625 61.28125 L 135.515625 59.597656 L 138.160156 59.597656 M 138.394531 59.363281 L 135.28125 59.363281 L 135.28125 61.28125 L 133.335938 61.28125 L 133.335938 64.386719 L 135.28125 64.386719 L 135.28125 66.355469 L 138.398438 66.355469 L 138.398438 64.386719 L 140.34375 64.386719 L 140.34375 61.28125 L 138.398438 61.28125 L 138.398438 59.363281 Z M 138.394531 59.363281 "/></g><path style=" stroke:none;fill-rule:nonzero;fill:#6da6e3;fill-opacity:1;" d="M 172.546875 2.597656 L 172.546875 -0.285156 L 175.472656 -0.285156 L 175.472656 -4.246094 L 172.902344 -4.246094 C 172.457031 -4.246094 172.546875 -4.15625 172.546875 -4.597656 L 172.546875 -7.199219 L 168.574219 -7.199219 L 168.574219 -4.246094 L 165.648438 -4.246094 L 165.648438 -0.285156 L 168.222656 -0.285156 C 168.664062 -0.285156 168.574219 -0.375 168.574219 0.0664062 L 168.574219 2.597656 L 172.546875 2.597656 M 172.902344 2.949219 L 168.222656 2.949219 L 168.222656 0.0664062 L 165.296875 0.0664062 L 165.296875 -4.597656 L 168.222656 -4.597656 L 168.222656 -7.550781 L 172.902344 -7.550781 L 172.902344 -4.597656 L 175.828125 -4.597656 L 175.828125 0.0664062 L 172.902344 0.0664062 Z M 172.902344 2.949219 "/><g clip-rule="nonzero" clip-path="url(#1e32bad332)"><path style=" stroke:none;fill-rule:nonzero;fill:#6da6e3;fill-opacity:1;" d="M 177.445312 14.128906 L 177.445312 12.335938 L 179.261719 12.335938 L 179.261719 9.875 L 177.667969 9.875 C 177.390625 9.875 177.445312 9.929688 177.445312 9.65625 L 177.445312 8.039062 L 174.976562 8.039062 L 174.976562 9.875 L 173.160156 9.875 L 173.160156 12.335938 L 174.757812 12.335938 C 175.035156 12.335938 174.976562 12.28125 174.976562 12.554688 L 174.976562 14.128906 L 177.445312 14.128906 M 177.667969 14.347656 L 174.761719 14.347656 L 174.761719 12.554688 L 172.945312 12.554688 L 172.945312 9.65625 L 174.761719 9.65625 L 174.761719 7.824219 L 177.667969 7.824219 L 177.667969 9.65625 L 179.484375 9.65625 L 179.484375 12.554688 L 177.667969 12.554688 Z M 177.667969 14.347656 "/></g><path style=" stroke:none;fill-rule:nonzero;fill:#6da6e3;fill-opacity:1;" d="M 158.203125 3.742188 L 158.203125 2.542969 L 159.421875 2.542969 L 159.421875 0.890625 L 158.351562 0.890625 C 158.167969 0.890625 158.203125 0.929688 158.203125 0.746094 L 158.203125 -0.339844 L 156.550781 -0.339844 L 156.550781 0.890625 L 155.332031 0.890625 L 155.332031 2.542969 L 156.402344 2.542969 C 156.585938 2.542969 156.550781 2.503906 156.550781 2.6875 L 156.550781 3.742188 L 158.203125 3.742188 M 158.351562 3.886719 L 156.402344 3.886719 L 156.402344 2.6875 L 155.183594 2.6875 L 155.183594 0.746094 L 156.402344 0.746094 L 156.402344 -0.484375 L 158.351562 -0.484375 L 158.351562 0.746094 L 159.570312 0.746094 L 159.570312 2.6875 L 158.351562 2.6875 Z M 158.351562 3.886719 "/><g clip-rule="nonzero" clip-path="url(#7c4c4c4d8b)"><path style=" stroke:none;fill-rule:nonzero;fill:#6da6e3;fill-opacity:1;" d="M 102.292969 29.097656 L 102.292969 24.222656 L 107.238281 24.222656 L 107.238281 17.519531 L 102.886719 17.519531 C 102.136719 17.519531 102.292969 17.675781 102.292969 16.921875 L 102.292969 12.527344 L 95.570312 12.527344 L 95.570312 17.519531 L 90.625 17.519531 L 90.625 24.222656 L 94.972656 24.222656 C 95.726562 24.222656 95.570312 24.070312 95.570312 24.820312 L 95.570312 29.097656 L 102.292969 29.097656 M 102.886719 29.695312 L 94.976562 29.695312 L 94.976562 24.820312 L 90.027344 24.820312 L 90.027344 16.925781 L 94.976562 16.925781 L 94.976562 11.933594 L 102.886719 11.933594 L 102.886719 16.925781 L 107.835938 16.925781 L 107.835938 24.820312 L 102.886719 24.820312 Z M 102.886719 29.695312 "/></g><path style=" stroke:none;fill-rule:nonzero;fill:#6da6e3;fill-opacity:1;" d="M 99.097656 71.292969 L 99.097656 68.410156 L 102.023438 68.410156 L 102.023438 64.445312 L 99.449219 64.445312 C 99.007812 64.445312 99.097656 64.535156 99.097656 64.09375 L 99.097656 61.492188 L 95.125 61.492188 L 95.125 64.445312 L 92.199219 64.445312 L 92.199219 68.410156 L 94.769531 68.410156 C 95.214844 68.410156 95.125 68.320312 95.125 68.761719 L 95.125 71.292969 L 99.097656 71.292969 M 99.449219 71.644531 L 94.769531 71.644531 L 94.769531 68.761719 L 91.84375 68.761719 L 91.84375 64.09375 L 94.769531 64.09375 L 94.769531 61.140625 L 99.449219 61.140625 L 99.449219 64.09375 L 102.375 64.09375 L 102.375 68.761719 L 99.449219 68.761719 Z M 99.449219 71.644531 "/><path style=" stroke:none;fill-rule:nonzero;fill:#6da6e3;fill-opacity:1;" d="M 58.003906 31.746094 L 58.003906 29.515625 L 60.269531 29.515625 L 60.269531 26.445312 L 58.277344 26.445312 C 57.933594 26.445312 58.003906 26.515625 58.003906 26.171875 L 58.003906 24.15625 L 54.925781 24.15625 L 54.925781 26.445312 L 52.660156 26.445312 L 52.660156 29.515625 L 54.652344 29.515625 C 54.996094 29.515625 54.925781 29.445312 54.925781 29.789062 L 54.925781 31.746094 L 58.003906 31.746094 M 58.277344 32.019531 L 54.652344 32.019531 L 54.652344 29.789062 L 52.386719 29.789062 L 52.386719 26.171875 L 54.652344 26.171875 L 54.652344 23.882812 L 58.277344 23.882812 L 58.277344 26.171875 L 60.542969 26.171875 L 60.542969 29.789062 L 58.277344 29.789062 Z M 58.277344 32.019531 "/><path style=" stroke:none;fill-rule:nonzero;fill:#6da6e3;fill-opacity:1;" d="M 43.246094 28.980469 L 43.246094 27.1875 L 45.0625 27.1875 L 45.0625 24.726562 L 43.464844 24.726562 C 43.191406 24.726562 43.246094 24.78125 43.246094 24.507812 L 43.246094 22.894531 L 40.777344 22.894531 L 40.777344 24.726562 L 38.960938 24.726562 L 38.960938 27.1875 L 40.558594 27.1875 C 40.832031 27.1875 40.777344 27.132812 40.777344 27.40625 L 40.777344 28.980469 L 43.246094 28.980469 M 43.464844 29.199219 L 40.558594 29.199219 L 40.558594 27.40625 L 38.742188 27.40625 L 38.742188 24.507812 L 40.558594 24.507812 L 40.558594 22.675781 L 43.464844 22.675781 L 43.464844 24.507812 L 45.28125 24.507812 L 45.28125 27.40625 L 43.464844 27.40625 Z M 43.464844 29.199219 "/><g clip-rule="nonzero" clip-path="url(#4cd3865903)"><path style=" stroke:none;fill-rule:nonzero;fill:#6da6e3;fill-opacity:1;" d="M 103.996094 82.820312 L 103.996094 81.03125 L 105.8125 81.03125 L 105.8125 78.566406 L 104.214844 78.566406 C 103.941406 78.566406 103.996094 78.625 103.996094 78.347656 L 103.996094 76.734375 L 101.527344 76.734375 L 101.527344 78.566406 L 99.710938 78.566406 L 99.710938 81.03125 L 101.308594 81.03125 C 101.582031 81.03125 101.527344 80.972656 101.527344 81.25 L 101.527344 82.820312 L 103.996094 82.820312 M 104.214844 83.039062 L 101.308594 83.039062 L 101.308594 81.25 L 99.492188 81.25 L 99.492188 78.351562 L 101.308594 78.351562 L 101.308594 76.515625 L 104.214844 76.515625 L 104.214844 78.351562 L 106.03125 78.351562 L 106.03125 81.25 L 104.214844 81.25 Z M 104.214844 83.039062 "/></g><path style=" stroke:none;fill-rule:nonzero;fill:#6da6e3;fill-opacity:1;" d="M 69.632812 32.902344 L 69.632812 31.027344 L 71.535156 31.027344 L 71.535156 28.453125 L 69.863281 28.453125 C 69.574219 28.453125 69.632812 28.511719 69.632812 28.222656 L 69.632812 26.535156 L 67.050781 26.535156 L 67.050781 28.453125 L 65.152344 28.453125 L 65.152344 31.027344 L 66.824219 31.027344 C 67.113281 31.027344 67.050781 30.96875 67.050781 31.257812 L 67.050781 32.902344 L 69.632812 32.902344 M 69.863281 33.128906 L 66.824219 33.128906 L 66.824219 31.257812 L 64.921875 31.257812 L 64.921875 28.222656 L 66.824219 28.222656 L 66.824219 26.304688 L 69.863281 26.304688 L 69.863281 28.222656 L 71.765625 28.222656 L 71.765625 31.257812 L 69.863281 31.257812 Z M 69.863281 33.128906 "/><g clip-rule="nonzero" clip-path="url(#191150c570)"><path style=" stroke:none;fill-rule:nonzero;fill:#6da6e3;fill-opacity:1;" d="M 61.144531 16.96875 L 61.144531 15.097656 L 63.042969 15.097656 L 63.042969 12.519531 L 61.371094 12.519531 C 61.085938 12.519531 61.144531 12.582031 61.144531 12.292969 L 61.144531 10.601562 L 58.5625 10.601562 L 58.5625 12.519531 L 56.660156 12.519531 L 56.660156 15.097656 L 58.332031 15.097656 C 58.621094 15.097656 58.5625 15.039062 58.5625 15.324219 L 58.5625 16.96875 L 61.144531 16.96875 M 61.371094 17.199219 L 58.332031 17.199219 L 58.332031 15.328125 L 56.429688 15.328125 L 56.429688 12.292969 L 58.332031 12.292969 L 58.332031 10.375 L 61.371094 10.375 L 61.371094 12.292969 L 63.273438 12.292969 L 63.273438 15.328125 L 61.371094 15.328125 Z M 61.371094 17.199219 "/></g><path style=" stroke:none;fill-rule:nonzero;fill:#6da6e3;fill-opacity:1;" d="M 83.882812 62.703125 L 83.882812 60.46875 L 86.148438 60.46875 L 86.148438 57.398438 L 84.15625 57.398438 C 83.8125 57.398438 83.882812 57.46875 83.882812 57.125 L 83.882812 55.109375 L 80.804688 55.109375 L 80.804688 57.398438 L 78.539062 57.398438 L 78.539062 60.46875 L 80.53125 60.46875 C 80.875 60.46875 80.804688 60.398438 80.804688 60.742188 L 80.804688 62.703125 L 83.882812 62.703125 M 84.15625 62.976562 L 80.53125 62.976562 L 80.53125 60.742188 L 78.265625 60.742188 L 78.265625 57.125 L 80.53125 57.125 L 80.53125 54.835938 L 84.15625 54.835938 L 84.15625 57.125 L 86.421875 57.125 L 86.421875 60.742188 L 84.15625 60.742188 Z M 84.15625 62.976562 "/><path style=" stroke:none;fill-rule:nonzero;fill:#6da6e3;fill-opacity:1;" d="M 87.140625 40.503906 L 87.140625 36.519531 L 91.183594 36.519531 L 91.183594 31.039062 L 87.628906 31.039062 C 87.015625 31.039062 87.140625 31.167969 87.140625 30.554688 L 87.140625 26.957031 L 81.644531 26.957031 L 81.644531 31.039062 L 77.605469 31.039062 L 77.605469 36.519531 L 81.160156 36.519531 C 81.773438 36.519531 81.648438 36.394531 81.648438 37.007812 L 81.648438 40.503906 L 87.140625 40.503906 M 87.628906 40.992188 L 81.15625 40.992188 L 81.15625 37.007812 L 77.117188 37.007812 L 77.117188 30.554688 L 81.15625 30.554688 L 81.15625 26.472656 L 87.628906 26.472656 L 87.628906 30.554688 L 91.671875 30.554688 L 91.671875 37.007812 L 87.628906 37.007812 Z M 87.628906 40.992188 "/><path style=" stroke:none;fill-rule:nonzero;fill:#6da6e3;fill-opacity:1;" d="M 55.410156 44.550781 L 55.410156 42.878906 L 57.105469 42.878906 L 57.105469 40.582031 L 55.613281 40.582031 C 55.355469 40.582031 55.410156 40.632812 55.410156 40.378906 L 55.410156 38.871094 L 53.105469 38.871094 L 53.105469 40.582031 L 51.410156 40.582031 L 51.410156 42.878906 L 52.902344 42.878906 C 53.160156 42.878906 53.105469 42.828125 53.105469 43.082031 L 53.105469 44.550781 L 55.410156 44.550781 M 55.613281 44.753906 L 52.902344 44.753906 L 52.902344 43.082031 L 51.207031 43.082031 L 51.207031 40.378906 L 52.902344 40.378906 L 52.902344 38.667969 L 55.613281 38.667969 L 55.613281 40.378906 L 57.308594 40.378906 L 57.308594 43.082031 L 55.613281 43.082031 Z M 55.613281 44.753906 "/><path style=" stroke:none;fill-rule:nonzero;fill:#6da6e3;fill-opacity:1;" d="M 66.457031 58.320312 L 66.457031 57.117188 L 67.675781 57.117188 L 67.675781 55.46875 L 66.605469 55.46875 C 66.421875 55.46875 66.457031 55.507812 66.457031 55.320312 L 66.457031 54.238281 L 64.804688 54.238281 L 64.804688 55.46875 L 63.585938 55.46875 L 63.585938 57.117188 L 64.65625 57.117188 C 64.839844 57.117188 64.804688 57.082031 64.804688 57.265625 L 64.804688 58.320312 L 66.457031 58.320312 M 66.605469 58.464844 L 64.65625 58.464844 L 64.65625 57.265625 L 63.4375 57.265625 L 63.4375 55.320312 L 64.65625 55.320312 L 64.65625 54.09375 L 66.605469 54.09375 L 66.605469 55.320312 L 67.824219 55.320312 L 67.824219 57.265625 L 66.605469 57.265625 Z M 66.605469 58.464844 "/><path style=" stroke:none;fill-rule:nonzero;fill:#6da6e3;fill-opacity:1;" d="M 84.753906 72.433594 L 84.753906 71.234375 L 85.972656 71.234375 L 85.972656 69.585938 L 84.898438 69.585938 C 84.714844 69.585938 84.753906 69.621094 84.753906 69.4375 L 84.753906 68.355469 L 83.097656 68.355469 L 83.097656 69.585938 L 81.878906 69.585938 L 81.878906 71.234375 L 82.953125 71.234375 C 83.136719 71.234375 83.097656 71.199219 83.097656 71.382812 L 83.097656 72.433594 L 84.753906 72.433594 M 84.898438 72.582031 L 82.953125 72.582031 L 82.953125 71.382812 L 81.734375 71.382812 L 81.734375 69.4375 L 82.953125 69.4375 L 82.953125 68.207031 L 84.898438 68.207031 L 84.898438 69.4375 L 86.117188 69.4375 L 86.117188 71.382812 L 84.898438 71.382812 Z M 84.898438 72.582031 "/><path style=" stroke:none;fill-rule:nonzero;fill:#6da6e3;fill-opacity:1;" d="M 45.230469 15.566406 L 45.230469 14.367188 L 46.449219 14.367188 L 46.449219 12.71875 L 45.378906 12.71875 C 45.191406 12.71875 45.230469 12.753906 45.230469 12.570312 L 45.230469 11.488281 L 43.574219 11.488281 L 43.574219 12.71875 L 42.359375 12.71875 L 42.359375 14.367188 L 43.429688 14.367188 C 43.613281 14.367188 43.574219 14.328125 43.574219 14.515625 L 43.574219 15.566406 L 45.230469 15.566406 M 45.378906 15.714844 L 43.429688 15.714844 L 43.429688 14.515625 L 42.210938 14.515625 L 42.210938 12.570312 L 43.429688 12.570312 L 43.429688 11.339844 L 45.378906 11.339844 L 45.378906 12.570312 L 46.59375 12.570312 L 46.59375 14.515625 L 45.378906 14.515625 Z M 45.378906 15.714844 "/><g clip-rule="nonzero" clip-path="url(#c8097ed11a)"><path style=" stroke:none;fill-rule:nonzero;fill:#6da6e3;fill-opacity:1;" d="M 78.773438 21.375 L 78.773438 18.292969 L 81.898438 18.292969 L 81.898438 14.058594 L 79.148438 14.058594 C 78.675781 14.058594 78.773438 14.152344 78.773438 13.679688 L 78.773438 10.898438 L 74.523438 10.898438 L 74.523438 14.054688 L 71.398438 14.054688 L 71.398438 18.292969 L 74.148438 18.292969 C 74.625 18.292969 74.527344 18.195312 74.527344 18.667969 L 74.527344 21.371094 L 78.773438 21.371094 M 79.152344 21.75 L 74.152344 21.75 L 74.152344 18.667969 L 71.023438 18.667969 L 71.023438 13.679688 L 74.152344 13.679688 L 74.152344 10.523438 L 79.152344 10.523438 L 79.152344 13.679688 L 82.277344 13.679688 L 82.277344 18.667969 L 79.152344 18.667969 Z M 79.152344 21.75 "/></g><path style=" stroke:none;fill-rule:nonzero;fill:#6da6e3;fill-opacity:1;" d="M 102.222656 53.171875 L 102.222656 49.570312 L 105.875 49.570312 L 105.875 44.617188 L 102.664062 44.617188 C 102.105469 44.617188 102.222656 44.730469 102.222656 44.179688 L 102.222656 40.929688 L 97.257812 40.929688 L 97.257812 44.621094 L 93.601562 44.621094 L 93.601562 49.574219 L 96.816406 49.574219 C 97.371094 49.574219 97.257812 49.460938 97.257812 50.011719 L 97.257812 53.171875 L 102.222656 53.171875 M 102.664062 53.613281 L 96.816406 53.613281 L 96.816406 50.011719 L 93.160156 50.011719 L 93.160156 44.175781 L 96.816406 44.175781 L 96.816406 40.488281 L 102.664062 40.488281 L 102.664062 44.175781 L 106.316406 44.175781 L 106.316406 50.011719 L 102.664062 50.011719 Z M 102.664062 53.613281 "/><path style=" stroke:none;fill-rule:nonzero;fill:#6da6e3;fill-opacity:1;" d="M 77.046875 50.117188 L 77.046875 47.121094 L 80.089844 47.121094 L 80.089844 43 L 77.414062 43 C 76.953125 43 77.046875 43.097656 77.046875 42.636719 L 77.046875 39.929688 L 72.917969 39.929688 L 72.917969 43.003906 L 69.875 43.003906 L 69.875 47.125 L 72.550781 47.125 C 73.011719 47.125 72.917969 47.027344 72.917969 47.488281 L 72.917969 50.121094 L 77.046875 50.121094 M 77.414062 50.484375 L 72.550781 50.484375 L 72.550781 47.488281 L 69.507812 47.488281 L 69.507812 42.636719 L 72.550781 42.636719 L 72.550781 39.5625 L 77.414062 39.5625 L 77.414062 42.636719 L 80.457031 42.636719 L 80.457031 47.488281 L 77.414062 47.488281 Z M 77.414062 50.484375 "/><g clip-rule="nonzero" clip-path="url(#46390a8ea0)"><path style=" stroke:none;fill-rule:nonzero;fill:#6da6e3;fill-opacity:1;" d="M 30.160156 18.691406 L 30.160156 16.773438 L 32.109375 16.773438 L 32.109375 14.136719 L 30.398438 14.136719 C 30.101562 14.136719 30.164062 14.195312 30.164062 13.902344 L 30.164062 12.171875 L 27.515625 12.171875 L 27.515625 14.136719 L 25.570312 14.136719 L 25.570312 16.773438 L 27.28125 16.773438 C 27.574219 16.773438 27.515625 16.714844 27.515625 17.007812 L 27.515625 18.691406 L 30.160156 18.691406 M 30.394531 18.925781 L 27.28125 18.925781 L 27.28125 17.007812 L 25.335938 17.007812 L 25.335938 13.898438 L 27.28125 13.898438 L 27.28125 11.933594 L 30.398438 11.933594 L 30.398438 13.898438 L 32.34375 13.898438 L 32.34375 17.007812 L 30.398438 17.007812 L 30.398438 18.925781 Z M 30.394531 18.925781 "/></g><g clip-rule="nonzero" clip-path="url(#a7806d727e)"><path style=" stroke:none;fill-rule:nonzero;fill:#6da6e3;fill-opacity:1;" d="M 60.925781 95.722656 L 60.925781 90.847656 L 65.875 90.847656 L 65.875 84.144531 L 61.523438 84.144531 C 60.773438 84.144531 60.925781 84.296875 60.925781 83.546875 L 60.925781 79.148438 L 54.207031 79.148438 L 54.207031 84.144531 L 49.261719 84.144531 L 49.261719 90.847656 L 53.609375 90.847656 C 54.363281 90.847656 54.207031 90.691406 54.207031 91.441406 L 54.207031 95.722656 L 60.925781 95.722656 M 61.523438 96.316406 L 53.613281 96.316406 L 53.613281 91.441406 L 48.664062 91.441406 L 48.664062 83.546875 L 53.613281 83.546875 L 53.613281 78.554688 L 61.523438 78.554688 L 61.523438 83.546875 L 66.472656 83.546875 L 66.472656 91.441406 L 61.523438 91.441406 Z M 61.523438 96.316406 "/></g><path style=" stroke:none;fill-rule:nonzero;fill:#6da6e3;fill-opacity:1;" d="M 57.734375 137.914062 L 57.734375 135.03125 L 60.660156 135.03125 L 60.660156 131.070312 L 58.085938 131.070312 C 57.640625 131.070312 57.734375 131.160156 57.734375 130.71875 L 57.734375 128.117188 L 53.761719 128.117188 L 53.761719 131.070312 L 50.835938 131.070312 L 50.835938 135.03125 L 53.40625 135.03125 C 53.851562 135.03125 53.761719 134.941406 53.761719 135.386719 L 53.761719 137.914062 L 57.734375 137.914062 M 58.085938 138.265625 L 53.40625 138.265625 L 53.40625 135.386719 L 50.480469 135.386719 L 50.480469 130.71875 L 53.40625 130.71875 L 53.40625 127.765625 L 58.085938 127.765625 L 58.085938 130.71875 L 61.011719 130.71875 L 61.011719 135.386719 L 58.085938 135.386719 Z M 58.085938 138.265625 "/><path style=" stroke:none;fill-rule:nonzero;fill:#6da6e3;fill-opacity:1;" d="M 16.640625 98.371094 L 16.640625 96.136719 L 18.90625 96.136719 L 18.90625 93.066406 L 16.914062 93.066406 C 16.570312 93.066406 16.640625 93.136719 16.640625 92.792969 L 16.640625 90.777344 L 13.5625 90.777344 L 13.5625 93.066406 L 11.296875 93.066406 L 11.296875 96.136719 L 13.289062 96.136719 C 13.632812 96.136719 13.5625 96.066406 13.5625 96.410156 L 13.5625 98.371094 L 16.640625 98.371094 M 16.914062 98.644531 L 13.289062 98.644531 L 13.289062 96.410156 L 11.023438 96.410156 L 11.023438 92.796875 L 13.289062 92.796875 L 13.289062 90.507812 L 16.914062 90.507812 L 16.914062 92.796875 L 19.179688 92.796875 L 19.179688 96.410156 L 16.914062 96.410156 Z M 16.914062 98.644531 "/><path style=" stroke:none;fill-rule:nonzero;fill:#6da6e3;fill-opacity:1;" d="M 1.882812 95.601562 L 1.882812 93.8125 L 3.699219 93.8125 L 3.699219 91.351562 L 2.101562 91.351562 C 1.824219 91.351562 1.882812 91.40625 1.882812 91.132812 L 1.882812 89.515625 L -0.585938 89.515625 L -0.585938 91.351562 L -2.402344 91.351562 L -2.402344 93.8125 L -0.804688 93.8125 C -0.53125 93.8125 -0.585938 93.757812 -0.585938 94.03125 L -0.585938 95.601562 L 1.882812 95.601562 M 2.101562 95.820312 L -0.804688 95.820312 L -0.804688 94.03125 L -2.621094 94.03125 L -2.621094 91.132812 L -0.804688 91.132812 L -0.804688 89.300781 L 2.101562 89.300781 L 2.101562 91.132812 L 3.917969 91.132812 L 3.917969 94.03125 L 2.101562 94.03125 Z M 2.101562 95.820312 "/><path style=" stroke:none;fill-rule:nonzero;fill:#6da6e3;fill-opacity:1;" d="M 62.632812 149.445312 L 62.632812 147.652344 L 64.449219 147.652344 L 64.449219 145.191406 L 62.851562 145.191406 C 62.574219 145.191406 62.632812 145.246094 62.632812 144.972656 L 62.632812 143.355469 L 60.164062 143.355469 L 60.164062 145.191406 L 58.347656 145.191406 L 58.347656 147.652344 L 59.945312 147.652344 C 60.21875 147.652344 60.164062 147.597656 60.164062 147.871094 L 60.164062 149.445312 L 62.632812 149.445312 M 62.851562 149.664062 L 59.945312 149.664062 L 59.945312 147.871094 L 58.128906 147.871094 L 58.128906 144.972656 L 59.945312 144.972656 L 59.945312 143.140625 L 62.851562 143.140625 L 62.851562 144.972656 L 64.667969 144.972656 L 64.667969 147.871094 L 62.851562 147.871094 Z M 62.851562 149.664062 "/><path style=" stroke:none;fill-rule:nonzero;fill:#6da6e3;fill-opacity:1;" d="M 28.269531 99.523438 L 28.269531 97.652344 L 30.171875 97.652344 L 30.171875 95.074219 L 28.5 95.074219 C 28.210938 95.074219 28.269531 95.136719 28.269531 94.847656 L 28.269531 93.15625 L 25.6875 93.15625 L 25.6875 95.074219 L 23.789062 95.074219 L 23.789062 97.652344 L 25.460938 97.652344 C 25.746094 97.652344 25.6875 97.59375 25.6875 97.878906 L 25.6875 99.523438 L 28.269531 99.523438 M 28.5 99.753906 L 25.460938 99.753906 L 25.460938 97.878906 L 23.558594 97.878906 L 23.558594 94.847656 L 25.460938 94.847656 L 25.460938 92.929688 L 28.5 92.929688 L 28.5 94.847656 L 30.402344 94.847656 L 30.402344 97.878906 L 28.5 97.878906 Z M 28.5 99.753906 "/><path style=" stroke:none;fill-rule:nonzero;fill:#6da6e3;fill-opacity:1;" d="M 19.78125 83.59375 L 19.78125 81.71875 L 21.679688 81.71875 L 21.679688 79.144531 L 20.007812 79.144531 C 19.71875 79.144531 19.78125 79.203125 19.78125 78.914062 L 19.78125 77.226562 L 17.199219 77.226562 L 17.199219 79.144531 L 15.296875 79.144531 L 15.296875 81.71875 L 16.96875 81.71875 C 17.257812 81.71875 17.199219 81.660156 17.199219 81.949219 L 17.199219 83.59375 L 19.78125 83.59375 M 20.007812 83.824219 L 16.96875 83.824219 L 16.96875 81.949219 L 15.066406 81.949219 L 15.066406 78.917969 L 16.96875 78.917969 L 16.96875 77 L 20.007812 77 L 20.007812 78.917969 L 21.910156 78.917969 L 21.910156 81.949219 L 20.007812 81.949219 Z M 20.007812 83.824219 "/><path style=" stroke:none;fill-rule:nonzero;fill:#6da6e3;fill-opacity:1;" d="M 42.519531 129.324219 L 42.519531 127.089844 L 44.785156 127.089844 L 44.785156 124.019531 L 42.792969 124.019531 C 42.449219 124.019531 42.519531 124.089844 42.519531 123.746094 L 42.519531 121.734375 L 39.441406 121.734375 L 39.441406 124.019531 L 37.175781 124.019531 L 37.175781 127.089844 L 39.164062 127.089844 C 39.511719 127.089844 39.441406 127.019531 39.441406 127.363281 L 39.441406 129.324219 L 42.519531 129.324219 M 42.792969 129.597656 L 39.167969 129.597656 L 39.167969 127.363281 L 36.902344 127.363281 L 36.902344 123.75 L 39.167969 123.75 L 39.167969 121.460938 L 42.792969 121.460938 L 42.792969 123.75 L 45.058594 123.75 L 45.058594 127.363281 L 42.792969 127.363281 Z M 42.792969 129.597656 "/><path style=" stroke:none;fill-rule:nonzero;fill:#6da6e3;fill-opacity:1;" d="M 45.777344 107.128906 L 45.777344 103.140625 L 49.820312 103.140625 L 49.820312 97.664062 L 46.265625 97.664062 C 45.648438 97.664062 45.777344 97.789062 45.777344 97.175781 L 45.777344 93.582031 L 40.28125 93.582031 L 40.28125 97.664062 L 36.238281 97.664062 L 36.238281 103.140625 L 39.796875 103.140625 C 40.410156 103.140625 40.285156 103.015625 40.285156 103.628906 L 40.285156 107.128906 L 45.777344 107.128906 M 46.265625 107.613281 L 39.792969 107.613281 L 39.792969 103.628906 L 35.75 103.628906 L 35.75 97.175781 L 39.792969 97.175781 L 39.792969 93.09375 L 46.265625 93.09375 L 46.265625 97.175781 L 50.304688 97.175781 L 50.304688 103.628906 L 46.265625 103.628906 Z M 46.265625 107.613281 "/><path style=" stroke:none;fill-rule:nonzero;fill:#6da6e3;fill-opacity:1;" d="M 14.046875 111.171875 L 14.046875 109.503906 L 15.742188 109.503906 L 15.742188 107.203125 L 14.25 107.203125 C 13.992188 107.203125 14.046875 107.257812 14.046875 107 L 14.046875 105.492188 L 11.742188 105.492188 L 11.742188 107.203125 L 10.046875 107.203125 L 10.046875 109.503906 L 11.539062 109.503906 C 11.796875 109.503906 11.742188 109.449219 11.742188 109.707031 L 11.742188 111.171875 L 14.046875 111.171875 M 14.25 111.375 L 11.539062 111.375 L 11.539062 109.707031 L 9.84375 109.707031 L 9.84375 107.003906 L 11.539062 107.003906 L 11.539062 105.289062 L 14.25 105.289062 L 14.25 107.003906 L 15.945312 107.003906 L 15.945312 109.707031 L 14.25 109.707031 Z M 14.25 111.375 "/><path style=" stroke:none;fill-rule:nonzero;fill:#6da6e3;fill-opacity:1;" d="M 25.09375 124.941406 L 25.09375 123.742188 L 26.3125 123.742188 L 26.3125 122.089844 L 25.242188 122.089844 C 25.054688 122.089844 25.09375 122.128906 25.09375 121.945312 L 25.09375 120.863281 L 23.441406 120.863281 L 23.441406 122.089844 L 22.222656 122.089844 L 22.222656 123.742188 L 23.292969 123.742188 C 23.476562 123.742188 23.441406 123.703125 23.441406 123.886719 L 23.441406 124.941406 L 25.09375 124.941406 M 25.242188 125.089844 L 23.292969 125.089844 L 23.292969 123.886719 L 22.074219 123.886719 L 22.074219 121.945312 L 23.292969 121.945312 L 23.292969 120.714844 L 25.242188 120.714844 L 25.242188 121.945312 L 26.460938 121.945312 L 26.460938 123.886719 L 25.242188 123.886719 Z M 25.242188 125.089844 "/><path style=" stroke:none;fill-rule:nonzero;fill:#6da6e3;fill-opacity:1;" d="M 43.390625 139.058594 L 43.390625 137.859375 L 44.605469 137.859375 L 44.605469 136.207031 L 43.535156 136.207031 C 43.351562 136.207031 43.390625 136.246094 43.390625 136.0625 L 43.390625 134.976562 L 41.734375 134.976562 L 41.734375 136.207031 L 40.515625 136.207031 L 40.515625 137.859375 L 41.585938 137.859375 C 41.773438 137.859375 41.734375 137.820312 41.734375 138.003906 L 41.734375 139.058594 L 43.390625 139.058594 M 43.535156 139.203125 L 41.585938 139.203125 L 41.585938 138.003906 L 40.371094 138.003906 L 40.371094 136.0625 L 41.585938 136.0625 L 41.585938 134.832031 L 43.535156 134.832031 L 43.535156 136.0625 L 44.753906 136.0625 L 44.753906 138.003906 L 43.535156 138.003906 Z M 43.535156 139.203125 "/><path style=" stroke:none;fill-rule:nonzero;fill:#6da6e3;fill-opacity:1;" d="M 3.867188 82.191406 L 3.867188 80.992188 L 5.085938 80.992188 L 5.085938 79.339844 L 4.015625 79.339844 C 3.828125 79.339844 3.867188 79.378906 3.867188 79.195312 L 3.867188 78.109375 L 2.210938 78.109375 L 2.210938 79.339844 L 0.996094 79.339844 L 0.996094 80.992188 L 2.066406 80.992188 C 2.25 80.992188 2.210938 80.953125 2.210938 81.136719 L 2.210938 82.191406 L 3.867188 82.191406 M 4.015625 82.335938 L 2.066406 82.335938 L 2.066406 81.136719 L 0.847656 81.136719 L 0.847656 79.195312 L 2.066406 79.195312 L 2.066406 77.964844 L 4.015625 77.964844 L 4.015625 79.195312 L 5.230469 79.195312 L 5.230469 81.136719 L 4.015625 81.136719 Z M 4.015625 82.335938 "/><path style=" stroke:none;fill-rule:nonzero;fill:#6da6e3;fill-opacity:1;" d="M 37.410156 87.996094 L 37.410156 84.917969 L 40.535156 84.917969 L 40.535156 80.679688 L 37.785156 80.679688 C 37.3125 80.679688 37.410156 80.777344 37.410156 80.304688 L 37.410156 77.523438 L 33.160156 77.523438 L 33.160156 80.679688 L 30.035156 80.679688 L 30.035156 84.914062 L 32.785156 84.914062 C 33.261719 84.914062 33.164062 84.816406 33.164062 85.292969 L 33.164062 87.996094 L 37.410156 87.996094 M 37.789062 88.371094 L 32.785156 88.371094 L 32.785156 85.292969 L 29.660156 85.292969 L 29.660156 80.304688 L 32.785156 80.304688 L 32.785156 77.148438 L 37.789062 77.148438 L 37.789062 80.304688 L 40.914062 80.304688 L 40.914062 85.292969 L 37.789062 85.292969 Z M 37.789062 88.371094 "/><path style=" stroke:none;fill-rule:nonzero;fill:#6da6e3;fill-opacity:1;" d="M 60.859375 119.796875 L 60.859375 116.195312 L 64.511719 116.195312 L 64.511719 111.242188 L 61.296875 111.242188 C 60.742188 111.242188 60.859375 111.355469 60.859375 110.800781 L 60.859375 107.554688 L 55.894531 107.554688 L 55.894531 111.242188 L 52.238281 111.242188 L 52.238281 116.195312 L 55.453125 116.195312 C 56.007812 116.195312 55.894531 116.082031 55.894531 116.636719 L 55.894531 119.796875 L 60.859375 119.796875 M 61.296875 120.234375 L 55.449219 120.234375 L 55.449219 116.632812 L 51.796875 116.632812 L 51.796875 110.800781 L 55.449219 110.800781 L 55.449219 107.109375 L 61.296875 107.109375 L 61.296875 110.800781 L 64.953125 110.800781 L 64.953125 116.632812 L 61.296875 116.632812 Z M 61.296875 120.234375 "/><path style=" stroke:none;fill-rule:nonzero;fill:#6da6e3;fill-opacity:1;" d="M 35.683594 116.742188 L 35.683594 113.746094 L 38.726562 113.746094 L 38.726562 109.625 L 36.050781 109.625 C 35.589844 109.625 35.683594 109.71875 35.683594 109.257812 L 35.683594 106.554688 L 31.550781 106.554688 L 31.550781 109.625 L 28.511719 109.625 L 28.511719 113.746094 L 31.1875 113.746094 C 31.648438 113.746094 31.550781 113.652344 31.550781 114.113281 L 31.550781 116.742188 L 35.683594 116.742188 M 36.050781 117.109375 L 31.1875 117.109375 L 31.1875 114.113281 L 28.144531 114.113281 L 28.144531 109.257812 L 31.1875 109.257812 L 31.1875 106.1875 L 36.050781 106.1875 L 36.050781 109.257812 L 39.09375 109.257812 L 39.09375 114.113281 L 36.050781 114.113281 Z M 36.050781 117.109375 "/></g></svg>